SplineFontDB: 3.0
FontName: Parkosz
FullName: Parkosz
FamilyName: Parkosz
Weight: Medium
Copyright: Created by Maciej Strzelczyk, with FontForge 2.0 (http://fontforge.sf.net)
UComments: "2013-6-9: Created." 
Version: 001.000
ItalicAngle: 0
UnderlinePosition: -120
UnderlineWidth: 60
Ascent: 800
Descent: 400
LayerCount: 2
Layer: 0 0 "Warstwa t+AUIA-a"  1
Layer: 1 0 "Plan pierwszy"  0
XUID: [1021 90 1930998488 16230043]
FSType: 8
OS2Version: 0
OS2_WeightWidthSlopeOnly: 0
OS2_UseTypoMetrics: 1
CreationTime: 1370812374
ModificationTime: 1371159940
PfmFamily: 17
TTFWeight: 500
TTFWidth: 5
LineGap: 108
VLineGap: 0
OS2TypoAscent: 0
OS2TypoAOffset: 1
OS2TypoDescent: 0
OS2TypoDOffset: 1
OS2TypoLinegap: 108
OS2WinAscent: 0
OS2WinAOffset: 1
OS2WinDescent: 0
OS2WinDOffset: 1
HheadAscent: 0
HheadAOffset: 1
HheadDescent: 0
HheadDOffset: 1
OS2Vendor: 'PfEd'
MarkAttachClasses: 1
DEI: 91125
LangName: 1033 
Encoding: UnicodeFull
UnicodeInterp: none
NameList: Adobe Glyph List
DisplaySize: -24
AntiAlias: 1
FitToEm: 1
WinInfo: 51 51 17
BeginPrivate: 0
EndPrivate
Grid
-1200 -193.76 m 0
 2400 -193.76 l 0
  Named: "D+APMBQgAA" 
-1200 630 m 0
 2400 630 l 0
  Named: "Du+AXwA-e" 
-1200 423 m 0
 2400 423 l 0
  Named: "Ma+AUIA-e" 
EndSplineSet
BeginChars: 1114112 25

StartChar: a
Encoding: 97 97 0
Width: 727
VWidth: 0
Flags: HW
LayerCount: 2
Fore
SplineSet
96 157.6 m 0
 94.4004 308.8 166.4 404.8 247.2 420 c 0
 263.2 423.2 274.4 423.2 287.2 423.2 c 3
 317.6 423.2 342.4 415.2 351.2 400.8 c 0
 364 380.8 382.4 423.2 382.4 423.2 c 1
 457.6 423.2 l 1
 480 390.4 l 1
 409.6 401.6 378.4 172 380 94.4004 c 0
 382.4 4.7998 470.4 110.4 486.4 204.8 c 1
 507.2 158.4 483.2 0 398.4 0 c 0
 310.4 0 313.6 84 313.6 84 c 1
 303.2 48 255.2 0 207.2 0 c 0
 157.6 0 97.5996 32.7998 96 157.6 c 0
199.2 56 m 0
 313.6 56 376.8 276.8 320 376 c 0
 309.6 394.4 276.8 396 258.4 386.4 c 0
 186.4 347.2 161.6 244 159.2 161.6 c 0
 158.4 124 161.6 56 199.2 56 c 0
EndSplineSet
EndChar

StartChar: b
Encoding: 98 98 1
Width: 691
VWidth: 0
Flags: HW
LayerCount: 2
Fore
SplineSet
492.727 267.714 m 0
 492.727 301.605 471.677 350.432 427.412 350.432 c 0
 361.688 350.432 273.411 244.259 273.411 163.976 c 0
 273.411 126.928 298.111 85.5625 342.154 85.5625 c 0
 412.116 85.5625 492.727 186.368 492.727 267.714 c 0
369.81 410.482 m 1
 403.496 416.157 439.623 424.374 471.66 424.374 c 0
 502.333 424.374 529.258 416.843 546.701 392.34 c 0
 577.743 348.732 590.248 305.59 590.248 264.951 c 3
 590.248 157.984 505.634 68.3477 451.331 33.1504 c 0
 417.025 10.9131 378.006 0 340.6 0 c 3
 263.719 0 193.657 42.5967 185.357 118.688 c 1
 187.817 193.4 220.47 279.973 235.969 331.546 c 1
 197.246 322.801 157.197 313.33 130.904 313.33 c 0
 116.007 313.33 105.526 316.37 102.203 324.306 c 1
 160.347 339.303 224.691 372.853 256.417 407.459 c 1
 272.974 534.169 267.723 543.903 303.817 592.104 c 0
 328.668 625.284 372.225 630 403.226 630 c 0
 439.725 630 459.225 585.667 459.226 549.576 c 0
 459.226 489.576 404.104 441.686 369.81 410.482 c 1
329.134 454.588 m 1
 346.144 467.237 380.58 505.357 393.053 534.669 c 0
 398.725 548 398.889 571.085 385.056 576.328 c 1
 375.213 579.911 358.968 569.533 350.062 553.672 c 0
 339.392 534.667 325.709 484.084 329.134 454.588 c 1
EndSplineSet
EndChar

StartChar: c
Encoding: 99 99 2
Width: 518
VWidth: 0
Flags: HW
LayerCount: 2
Fore
SplineSet
318.4 389.6 m 0
 209.6 348.8 148.8 56.7998 234.4 33.5996 c 1
 307.2 22.4004 322.4 94.4004 374.4 188 c 0
 380 196.8 406.4 201.6 409.6 167.2 c 1
 378.4 92 328 12 252.8 1.59961 c 0
 247.2 0.799805 241.6 0 236 0 c 3
 189.6 0 133.6 20 111.2 98.4004 c 0
 104 124 100 147.2 100 169.6 c 3
 100 342.4 286.4 423.2 322.4 423.2 c 4
 386.4 423.2 397.6 405.6 417.6 353.6 c 1
 420.8 342.4 422.4 331.2 422.4 320 c 3
 422.4 276 396.8 237.6 341.6 249.6 c 0
 301.6 259.2 319.2 320.8 366.4 347.2 c 1
 376.8 361.6 354.4 403.2 318.4 389.6 c 0
EndSplineSet
EndChar

StartChar: d
Encoding: 100 100 3
Width: 828
VWidth: 0
Flags: HW
LayerCount: 2
Fore
SplineSet
100.8 186.4 m 24,0,0
308.8 631.2 m 1,1,2
 384 631.2 472.8 631.2 562.4 631.2 c 1,3,-1
 562.4 604 l 1,4,5
 541.6 604 544.8 600.8 540.8 587.2 c 2,6,-1
 415.2 88 l 2,7,8
 411.2 68 430.4 56 449.6 64 c 0,9,10
 502.4 85.5996 507.2 140.8 528.8 188.8 c 1,11,12
 551.2 101.6 510.4 0 431.2 0 c 0,13,14
 393.6 0 332 0 336.8 85.5996 c 1,15,16
 322.4 44.7998 272 0 207.2 0 c 0,17,18
 127.2 0 100.8 99.2002 100.8 186.4 c 3,19,20
 100.8 317.6 208.8 423.2 300.8 423.2 c 3,21,22
 349.6 423.2 392 421.6 404.8 356.8 c 1,23,-1
 461.6 586.4 l 2,24,25
 465.6 603.2 459.2 604 445.6 604 c 0,26,27
 370.4 604 343.2 604 308.8 604 c 1,28,29
 308.8 638.4 308.8 610.4 308.8 631.2 c 1,1,2
234.4 40 m 0,30,31
 275.2 36.7998 323.2 92.7998 348.8 192.8 c 0,32,33
 380 313.6 380.8 393.6 316 393.6 c 3,34,35
 271.2 393.6 224.8 333.6 208 204.8 c 0,36,37
 190.4 71.2002 209.6 42.4004 234.4 40 c 0,30,31
EndSplineSet
EndChar

StartChar: e
Encoding: 101 101 4
Width: 625
VWidth: 0
Flags: HW
LayerCount: 2
Fore
SplineSet
380 200 m 1
 381.6 156 360 0 220.8 0 c 3
 136.8 0 108.8 68.7998 124.8 200.8 c 1
 113.6 203.2 107.2 207.2 96 221.6 c 1
 112 215.2 113.6 213.6 128 215.2 c 1
 160 337.6 215.2 422.4 316.8 422.4 c 3
 369.6 422.4 404.8 387.2 404.8 316 c 3
 404.8 258.4 308 196 208.8 197.6 c 1
 180.8 104 173.6 38.4004 240 38.4004 c 3
 312 38.4004 336 114.4 380 200 c 1
215.2 223.2 m 1
 246.4 228.8 285.6 236 306.4 251.2 c 0
 349.6 284 352.8 363.2 300 363.2 c 7
 240 363.2 224.8 271.2 215.2 223.2 c 1
EndSplineSet
EndChar

StartChar: f
Encoding: 102 102 5
Width: 883
VWidth: 0
Flags: HW
LayerCount: 2
Fore
SplineSet
176.899 -191.6 m 3
 130.5 -191.6 96.0996 -168.4 96.0996 -121.2 c 3
 96.0996 -88.4004 110.5 -68.4004 156.1 -68.4004 c 3
 202.5 -68.4004 202.5 -94 209.699 -130.8 c 1
 237.699 -149.2 310.5 -113.2 365.699 363.6 c 1
 252.1 363.6 l 1
 252.1 403.6 l 1
 373.699 403.6 l 1
 392.1 580.4 466.5 630 526.5 630 c 3
 603.3 630 611.3 591.6 611.3 557.2 c 3
 611.3 509.2 528.899 475.6 528.899 530 c 3
 528.899 561.2 523.3 570 500.1 570 c 3
 468.899 570 456.899 519.6 445.699 403.6 c 1
 506.5 403.6 l 1
 506.5 363.6 l 1
 437.699 363.6 l 1
 374.5 -183.6 256.1 -191.6 176.899 -191.6 c 3
EndSplineSet
EndChar

StartChar: g
Encoding: 103 103 6
Width: 747
VWidth: 0
Flags: HW
LayerCount: 2
Fore
SplineSet
404.8 57.5996 m 1
 366.4 4 303.2 -6.40039 250.4 4 c 0
 185.6 16.7998 138.4 71.2002 138.4 152.8 c 3
 138.4 257.6 196 423.2 335.2 423.2 c 3
 419.2 423.2 503.2 396 503.2 247.2 c 3
 503.2 185.6 503.2 189.6 489.6 125.6 c 1
 492.8 -84.7998 436 -92.7998 380.8 -115.2 c 0
 293.6 -150.4 205.6 -144 205.6 -198.4 c 0
 205.6 -268.8 277.6 -223.2 322.4 -204.8 c 0
 344.8 -195.2 360 -212 360 -252.8 c 3
 360 -311.2 304 -320 248 -320 c 3
 161.6 -320 107.2 -296 107.2 -198.4 c 3
 107.2 -104 159.2 -92.7998 229.6 -72.7998 c 0
 313.6 -48.7998 404.8 -91.2002 404.8 57.5996 c 1
278.4 71.2002 m 0
 347.2 59.2002 432.8 139.2 432.8 206.4 c 3
 432.8 258.4 407.2 342.4 353.6 342.4 c 3
 282.4 342.4 229.6 248 222.4 180 c 0
 218.4 140 237.6 78.4004 278.4 71.2002 c 0
EndSplineSet
EndChar

StartChar: h
Encoding: 104 104 7
Width: 578
VWidth: 0
Flags: HW
LayerCount: 2
Fore
SplineSet
101.6 630 m 1
 304 630 l 1
 244.8 392.8 l 1
 247.2 413.6 291.2 423.2 324 423.2 c 3
 333.6 423.2 344 421.6 350.4 420 c 0
 400.8 408 426.4 368.8 415.2 316.8 c 0
 398.4 237.6 326.4 156.8 375.2 91.2002 c 0
 405.6 50.4004 465.6 137.6 472.8 187.2 c 1
 500 96 429.6 0 353.6 0 c 0
 264.8 0 284 148 337.6 237.6 c 0
 368.8 288 388.8 381.6 300 381.6 c 0
 224 381.6 220.8 304.8 209.6 263.2 c 2
 151.2 37.5996 l 2
 142.4 4 127.2 -1.59961 101.6 0 c 0
 83.2002 1.59961 75.4766 17.7354 84 49.5996 c 2
 220 558 l 1
 227.2 591.6 208.8 591.6 189.6 591.6 c 2
 101.6 591.6 l 1
 101.6 630 l 1
EndSplineSet
EndChar

StartChar: i
Encoding: 105 105 8
Width: 368
VWidth: 0
Flags: HW
LayerCount: 2
Fore
SplineSet
63.1943 269.592 m 1
 75.1621 340.312 92.5693 423 180.697 423 c 3
 239.449 423 274.267 388.185 274.267 334.872 c 3
 274.267 242.392 168.806 182.784 168.806 88.1279 c 3
 168.806 66.3682 168.806 41.3447 198.183 41.3447 c 3
 241.702 41.3447 269.99 112.064 304.806 165.375 c 1
 304.806 89.2158 263.462 0 175.333 0 c 3
 131.813 0 92.6455 21.7598 92.6455 88.1279 c 3
 92.6455 200.192 203.546 240.215 203.546 334.872 c 3
 203.546 369.688 191.577 393.624 168.729 393.624 c 3
 115.417 393.624 98.0098 328.344 63.1943 269.592 c 1
303.07 576.688 m 3
 303.07 547.312 279.135 523.376 249.758 523.376 c 3
 220.383 523.376 196.446 547.312 196.446 576.688 c 3
 196.446 606.064 220.383 630 249.758 630 c 3
 279.135 630 303.07 606.064 303.07 576.688 c 3
EndSplineSet
EndChar

StartChar: j
Encoding: 106 106 9
Width: 615
VWidth: 0
Flags: HW
LayerCount: 2
Fore
SplineSet
97 -108.76 m 0
 97 -68.7598 117 -43.7598 152 -43.7598 c 0
 221.791 -43.7598 197 -148.76 257 -148.76 c 0
 357 -148.76 359.521 -42.9512 362.986 24.8457 c 1
 327.661 5.51953 292.603 0.0253906 249 0 c 0
 159.792 -0.0517578 142 87.1973 142 148 c 0
 142 328 277 423 342 423 c 0
 390.095 423 423.167 409.404 433.079 377.89 c 1
 467.871 378.132 475.648 430.985 515 423 c 1
 471.846 55.832 427 -193.76 242 -193.76 c 0
 177.905 -193.76 97 -173.03 97 -108.76 c 0
254 40 m 0
 359 40 490.436 378 372 378 c 0
 237 378 170.424 40 254 40 c 0
EndSplineSet
EndChar

StartChar: k
Encoding: 107 107 10
Width: 621
VWidth: 0
Flags: HW
LayerCount: 2
Fore
SplineSet
185.791 18.7998 m 2
 180.734 0 166.634 0 143.134 0 c 0
 114.935 0 95.6865 0.117188 100.834 18.7998 c 2
 251.095 564.2 l 1
 260.494 592.4 241.694 592.4 222.895 592.4 c 2
 124.194 592.4 l 1
 124.194 630 l 1
 354.494 630 l 1
 251.234 253.8 l 1
 284.134 253.8 302.935 244.4 318.773 230.922 c 1
 373.435 343.1 404.421 424.035 466.494 423 c 0
 495.019 422.524 521.921 409.936 521.921 372.335 c 0
 521.921 339.436 506.604 315.936 479.621 315.936 c 0
 451.421 315.936 430.419 315.618 420.943 352.604 c 1
 410.913 386.379 387.534 329 333.267 220.568 c 1
 406.334 155.1 335.834 46.2158 395.381 46.6484 c 0
 443.935 47 472.134 108.1 496.835 146.031 c 1
 486.234 79.9004 443.935 0 359.334 0 c 0
 326.783 0 302.935 32.9004 302.935 65.7998 c 0
 302.935 102.009 310.675 110.72 317.034 145.7 c 0
 326.435 197.4 279.435 220.9 239.455 211.5 c 1
 185.791 18.7998 l 2
EndSplineSet
EndChar

StartChar: l
Encoding: 108 108 11
Width: 472
VWidth: 0
Flags: HW
LayerCount: 2
Fore
SplineSet
344.164 123.828 m 0
 421.392 121.378 321.911 0.507812 257.05 0 c 0
 185.948 -0.554688 147.763 19.0791 152.184 51.1982 c 2
 175.516 220.698 l 1
 125.18 181.148 l 2
 110.798 169.849 92.1787 203.749 103.479 215.049 c 1
 182.578 277.198 l 1
 223.083 589.528 l 2
 226.584 617.543 259.825 629.817 294.715 630 c 0
 342.921 630.25 369.453 570.387 368.715 504 c 0
 367.715 414 374.174 376.849 242.868 273.619 c 1
 222.129 90.749 l 2
 212.897 9.35352 326.492 124.389 344.164 123.828 c 0
249.344 330.137 m 1
 298.522 368.777 316.397 381.184 322.715 487 c 0
 326.715 554 284.333 610.048 276.253 545.41 c 2
 249.344 330.137 l 1
EndSplineSet
EndChar

StartChar: m
Encoding: 109 109 12
Width: 912
VWidth: 0
Flags: HW
LayerCount: 2
Fore
SplineSet
101.67 285.2 m 0
 136.105 373.617 193.67 423.2 256.92 423.2 c 0
 289.793 423.2 322.015 419.877 343.17 377.2 c 1
 373.195 404.562 412.17 423.2 463.92 423.2 c 0
 514.757 423.2 539.82 400.2 562.82 359.95 c 1
 620.32 417.45 666.131 423.2 722.67 423.2 c 0
 762.92 423.2 808.868 399.394 797.42 359.95 c 2
 668.493 -84.25 l 2
 657.771 -121.013 679.993 -153.25 737.493 -153.25 c 0
 777.743 -153.25 789.243 -136 812.243 -113 c 1
 806.493 -153.25 771.993 -193.5 731.743 -193.5 c 0
 639.743 -193.5 595.969 -141.75 610.993 -90 c 2
 722.67 296.7 l 2
 734.8 338.701 756.346 378.146 712.555 382.36 c 0
 654.158 387.98 579.937 343.886 562.82 285.2 c 2
 482.32 9.2002 l 2
 477.269 -8.07617 411.402 -2.2998 424.82 43.7002 c 2
 505.32 319.7 l 2
 536.591 426.915 363.059 373.105 349.159 325.45 c 2
 256.92 9.2002 l 2
 251.587 -9.03613 186.233 -1.51367 199.42 43.7002 c 2
 279.92 319.7 l 2
 285.011 337.155 271.499 359.95 245.42 359.95 c 0
 187.92 359.95 166.267 314.617 135.811 255.189 c 0
 124.67 233.45 92.3369 261.238 101.67 285.2 c 0
EndSplineSet
EndChar

StartChar: n
Encoding: 110 110 13
Width: 1200
VWidth: 0
Flags: H
LayerCount: 2
Fore
SplineSet
98.9619 284.299 m 0
 133.572 373.165 191.429 423 255 423 c 0
 288.039 423 320.425 419.659 341.688 376.767 c 1
 372.6 414.6 389.399 423 456.6 423 c 0
 497.054 423 543.227 399.073 531.729 359.429 c 2
 403.067 -84.2207 l 2
 392.291 -121.17 414.625 -153.57 472.417 -153.57 c 0
 512.872 -153.57 524.431 -136.233 547.547 -113.117 c 1
 541.769 -153.57 507.093 -194.025 466.638 -194.025 c 0
 374.171 -194.025 330.175 -142.013 345.275 -90 c 2
 456.6 295.857 l 2
 468.779 338.074 490.641 382.818 446.433 381.952 c 0
 397.8 381 357.471 358.227 347.708 324.753 c 2
 255 6.89746 l 2
 251.628 -4.66113 183.953 -3.87012 197.208 41.5723 c 2
 278.116 318.975 l 2
 283.233 336.519 269.653 359.429 243.441 359.429 c 0
 185.649 359.429 163.886 313.865 133.276 254.136 c 0
 122.078 232.286 89.5811 260.216 98.9619 284.299 c 0
EndSplineSet
EndChar

StartChar: o
Encoding: 111 111 14
Width: 560
VWidth: 0
Flags: HW
LayerCount: 2
Fore
SplineSet
224.709 -0.452148 m 3
 140.999 -0.452148 100 69.6475 100 172.2 c 3
 100 290 198.34 423 321.34 423 c 3
 419.74 423 460.8 336.2 460.8 246 c 3
 460.8 192.998 410.341 -0.452148 224.709 -0.452148 c 3
232.371 23.8135 m 3
 296.805 23.8135 387 160.62 387 295.2 c 3
 387 324 385.34 382 321.34 382 c 3
 247.54 382 181.285 237.8 181.285 110.66 c 3
 181.285 44.8398 192.866 23.8135 232.371 23.8135 c 3
EndSplineSet
EndChar

StartChar: p
Encoding: 112 112 15
Width: 651
VWidth: 0
Flags: HW
LayerCount: 2
Fore
SplineSet
101.068 -167 m 2
 212.898 252.15 l 2
 237.569 344.619 299.846 423 410 423 c 3
 520.152 423 552.148 360 552.148 227.55 c 3
 552.148 89.9902 452.749 0 348.199 0 c 3
 286.699 0 231.349 36.9004 231.349 91.9092 c 1
 162.568 -167 l 2
 153.467 -200.878 91.1406 -203.951 101.068 -167 c 2
263.995 202.814 m 3
 263.995 122.978 286.697 61.9336 347.982 61.9336 c 3
 440.449 61.9336 495.799 129.15 495.799 227.55 c 3
 495.799 289.05 489.654 368.079 415.713 368.079 c 3
 298.995 368.079 263.995 274.885 263.995 202.814 c 3
EndSplineSet
EndChar

StartChar: q
Encoding: 113 113 16
Width: 586
VWidth: 0
Flags: HW
LayerCount: 2
Fore
SplineSet
124.416 -193.76 m 1
 124.416 -132.26 l 1
 228.966 -132.26 l 2
 253.565 -132.26 253.204 -132.26 265.865 -89.21 c 2
 305.844 43.0498 l 1
 266.05 6.15039 229.15 0 192.25 0 c 3
 110.565 0 100 91.5137 100 159.9 c 3
 100 319.8 197.466 423 295.865 423 c 3
 363.516 423 381.966 423 411.161 393.383 c 1
 448.396 394.393 449.615 423 486.516 423 c 1
 333.516 -89.21 l 2
 320.784 -132.137 351.966 -132.26 376.565 -132.26 c 2
 450.365 -132.26 l 1
 450.365 -193.76 l 1
 124.416 -193.76 l 1
216.851 43.0498 m 3
 358.3 43.0498 418.865 379.95 314.315 379.95 c 3
 177.268 379.95 132.865 43.0498 216.851 43.0498 c 3
EndSplineSet
EndChar

StartChar: r
Encoding: 114 114 17
Width: 572
VWidth: 0
Flags: HW
LayerCount: 2
Fore
SplineSet
104.257 244.615 m 1
 90.4014 304.448 106.488 423 210.889 423 c 3
 293.356 423 277.996 348.996 259.477 286.774 c 1
 285.533 374.336 332.688 423 410.988 423 c 3
 447.23 423 472.033 404.55 472.033 369.75 c 3
 472.033 326.25 449.384 308.812 419.488 308.812 c 3
 397.507 308.812 371.959 317.954 371.58 356.72 c 1
 329.726 359.617 309.006 329.855 298.033 291.45 c 2
 228.433 47.8496 l 2
 220.218 19.0977 202.333 0 176.232 0 c 3
 154.778 0 131.146 11.8496 141.433 47.8496 c 2
 211.033 291.45 l 2
 226.236 344.663 237.133 387.15 202.333 387.15 c 3
 152.211 387.15 111.888 317.216 104.257 244.615 c 1
EndSplineSet
EndChar

StartChar: s
Encoding: 115 115 18
Width: 574
VWidth: 0
Flags: HW
LayerCount: 2
Fore
SplineSet
155.211 185.27 m 3
 183.798 185.27 219.28 169.69 219.28 135.438 c 3
 219.28 109.065 201.414 97.2773 189.024 87.3848 c 1
 206.886 58.4443 232.272 40.4004 268.632 40.4004 c 3
 308.403 40.4004 361.553 64.6396 361.553 96.96 c 3
 361.553 198.298 167.632 210.08 167.632 311.08 c 3
 167.632 391.88 261.406 423 333.758 423 c 3
 426.678 423 474.672 363.6 474.672 307.04 c 3
 474.672 273.47 461.398 254.52 430.232 254.52 c 3
 397.912 254.52 385.792 271.803 385.792 298.96 c 3
 385.792 315.12 397.912 335.32 413.271 336.548 c 1
 397.522 362.838 369.632 387.84 333.272 387.84 c 3
 290.085 387.84 264.593 355.52 264.593 319.16 c 3
 264.593 262.6 438.188 202 438.188 124.76 c 3
 438.188 28.5068 341.353 0 272.672 0 c 3
 179.99 0 100.038 25.3545 100.038 110.522 c 3
 100.038 153.533 121.157 185.27 155.211 185.27 c 3
EndSplineSet
EndChar

StartChar: t
Encoding: 116 116 19
Width: 479
VWidth: 0
Flags: HW
LayerCount: 2
Fore
SplineSet
355.452 194.541 m 0
 377.5 175.5 313.169 0 232.128 0 c 3
 174.352 0 106.812 47.1143 128.628 136.337 c 2
 189.918 387 l 1
 119.351 387 l 2
 93.5498 387 93.5498 447.2 119.351 447.2 c 2
 204.547 447.2 l 1
 242.161 602 l 2
 250.541 637.891 359.5 640.5 349.702 602 c 1
 312.087 447.2 l 1
 360.15 447.2 l 2
 385.95 447.2 385.95 387 360.15 387 c 2
 297.458 387 l 1
 245.988 180.142 l 2
 212.436 42.0527 275.928 69.9316 323.101 176.96 c 0
 332.445 198.163 344.584 203.927 355.452 194.541 c 0
EndSplineSet
EndChar

StartChar: u
Encoding: 117 117 20
Width: 668
VWidth: 0
Flags: HW
LayerCount: 2
Fore
SplineSet
100.548 221.732 m 1
 94.4639 262.044 138.719 423 249.344 423 c 3
 390.344 423 272.844 188 252.576 122.293 c 0
 241.35 85.8955 244.644 42.2998 272.844 42.2998 c 3
 331.576 42.2998 358.522 108.1 366.844 136.3 c 2
 451.444 423 l 1
 526.644 423 l 1
 442.044 136.3 l 2
 428.325 89.8066 418.544 47 470.244 47 c 3
 528.782 47 564.244 155.1 568.944 178.6 c 1
 568.944 94 536.044 0 446.744 0 c 3
 380.944 0 388.045 62.9424 390.344 112.8 c 1
 373.945 34.7422 335.562 0 254.044 0 c 3
 206.86 0 176.193 39.8962 176.193 101.164 c 3
 176.193 188.009 319.758 382.106 240.091 382.106 c 3
 181.878 382.106 117.667 277.249 100.548 221.732 c 1
EndSplineSet
EndChar

StartChar: v
Encoding: 118 118 21
Width: 1200
VWidth: 0
Flags: H
LayerCount: 2
Fore
SplineSet
182.393 544.89 m 1
 194.426 574.149 227.922 630 270.102 630 c 3
 384.773 630 377.326 509.927 377.326 477.709 c 3
 377.326 356.343 294.102 230 294.102 110 c 3
 294.102 80 304.102 50 344.102 50 c 3
 434.102 50 454.102 213 454.102 333 c 3
 454.102 373 472.607 423 514.102 423 c 3
 554.102 423 556.523 392.251 590.4 392.251 c 3
 623.361 392.251 643.105 406.98 668.102 423 c 1
 661.768 387.611 639.895 325.07 592.604 325.07 c 3
 563.733 325.07 528.24 382.082 507.801 299.74 c 0
 489 224 514.102 0 334.102 0 c 3
 267.582 0 234.102 50 234.102 110 c 3
 234.102 240 322.26 295.839 322.26 453.48 c 3
 322.26 530.038 294.684 580 254.684 580 c 3
 217.039 580 201.936 561.201 182.393 544.89 c 1
EndSplineSet
EndChar

StartChar: w
Encoding: 119 119 22
Width: 801
VWidth: 0
Flags: HW
LayerCount: 2
Fore
SplineSet
100 206.254 m 1
 115.944 283.08 171.404 423 247.557 423 c 3
 288.4 423 311.73 395.263 311.73 301.092 c 3
 311.73 203.227 207.066 50.7637 259.901 50.7637 c 3
 357.765 50.7637 391.426 277.738 447.818 412.987 c 0
 451.589 422.031 468.164 423 487.87 423 c 3
 507.381 423 530.055 421.932 527.923 412.987 c 0
 473.445 184.391 426.942 37.5312 502.509 37.5312 c 3
 554.006 37.5312 658.435 234.465 632.634 307.708 c 1
 566.524 304.545 558.255 319.866 558.255 354.023 c 3
 558.255 407.078 588.141 423 618.04 423 c 3
 696.437 423 701.005 352.419 701.005 286.756 c 3
 701.005 201.865 618.033 0.125977 497.876 0.125977 c 3
 434.729 0.125977 394.839 26.1543 383.41 92.6699 c 1
 348.834 55.3066 337.667 0.125977 247.55 0.125977 c 3
 47.6514 0.125977 264.068 257.3 234.537 342.996 c 0
 222.386 377.114 153.114 269.891 100 206.254 c 1
EndSplineSet
EndChar

StartChar: y
Encoding: 121 121 23
Width: 600
VWidth: 0
Flags: HW
LayerCount: 2
Fore
SplineSet
112.979 246.337 m 1
 114.052 327.891 145 423 235 423 c 3
 270 423 305 403 305 343 c 3
 305 273.427 180 20 265 20 c 3
 300 20 346.506 54.582 350 70 c 2
 430 423 l 1
 500 423 l 1
 420 70 l 2
 383.478 -91.1553 335 -193.76 210 -193.76 c 7
 139.261 -193.76 100 -168.76 100 -133.76 c 3
 100 -95.3486 120 -73.7598 150 -73.7598 c 3
 180 -73.7598 200 -88.7598 200 -108.76 c 3
 200 -128.76 180 -148.76 165 -143.76 c 1
 165 -158.76 184.425 -178.76 220 -178.76 c 3
 275 -178.76 313.549 -90 343.549 45 c 1
 318.549 20 295 0 245 0 c 3
 225 0 175 20 175 85 c 3
 175 190 320 383 215 383 c 3
 165 383 135 313 112.979 246.337 c 1
EndSplineSet
EndChar

StartChar: z
Encoding: 122 122 24
Width: 1200
VWidth: 0
Flags: H
LayerCount: 2
Fore
SplineSet
429.907 196.587 m 1
 426.316 119.072 421.727 0.246094 299.014 0.246094 c 3
 261.607 0.246094 231.237 25.9551 191.58 87.8564 c 1
 166.245 87.1055 161.355 63.0186 168.155 37.4023 c 0
 175.405 10.0898 160.841 0.246094 135.396 0.246094 c 3
 111.154 0.246094 110.492 8.83748 110.492 55.4219 c 3
 110.492 83.8289 122.502 94.3682 141.126 113.084 c 1
 349.252 300.487 l 1
 241.559 380.172 208.635 294.13 167.381 245.281 c 0
 156.939 232.918 136.791 226.052 131.216 239.222 c 0
 127.5 248 207.041 423 282.668 423 c 3
 321.924 423 361.868 402.673 387.994 332.923 c 1
 415.023 349.478 408.125 362.479 402.303 382.159 c 0
 397.597 398.064 395.786 423 429.924 423 c 3
 452.166 423 459.188 406.658 459.188 369.915 c 3
 459.188 350.144 453.27 337.699 441.151 326.616 c 2
 219.511 123.896 l 1
 312.311 54.7002 350.79 62.9258 429.907 196.587 c 1
EndSplineSet
EndChar
